<svg version="1.1" id="Layer_1" xmlns="http://www.w3.org/2000/svg" xmlns:xlink="http://www.w3.org/1999/xlink" x="0px" y="0px"
	 width="100%" viewBox="0 0 768 768" enable-background="new 0 0 768 768" xml:space="preserve">
<path fill="#000000" opacity="1.000000" stroke="none" 
	d="
M178.531342,1.000000 
	C173.287674,3.461359 167.043625,2.964439 161.091797,4.195090 
	C140.511658,8.450413 120.842781,14.919042 102.311943,25.082676 
	C85.860855,34.105625 70.818016,44.988007 57.809090,58.312115 
	C28.119001,88.721527 9.716624,125.021004 3.287602,167.199097 
	C2.767040,170.614304 2.163124,174.016800 1.298970,177.712601 
	C1.000000,119.072777 1.000000,60.145550 1.000000,1.000000 
	C60.020714,1.000000 119.041702,1.000000 178.531342,1.000000 
z"/>
<path fill="#000000" opacity="1.000000" stroke="none" 
	d="
M1.000000,593.468628 
	C3.263455,598.169373 3.188413,603.814636 4.215126,609.228943 
	C8.137700,629.914246 14.815534,649.506226 24.910833,668.095703 
	C34.197205,685.195740 45.569580,700.632874 59.375591,714.142151 
	C71.720093,726.221375 85.525032,736.501282 100.761757,744.945129 
	C122.055588,756.745605 144.749390,764.078674 168.789886,768.656128 
	C113.071297,769.000000 57.142586,769.000000 1.000000,769.000000 
	C1.000000,710.645935 1.000000,652.291626 1.000000,593.468628 
z"/>
<path fill="#000000" opacity="1.000000" stroke="none" 
	d="
M769.000000,126.531334 
	C765.946411,120.570145 763.046082,114.062004 759.808838,107.726036 
	C752.070740,92.581177 742.419495,78.807228 731.156921,65.985992 
	C715.011414,47.606037 695.828308,33.281639 674.271851,22.221176 
	C655.880005,12.784480 636.290588,6.429249 615.751465,3.333607 
	C611.997681,2.767846 608.239014,2.234798 604.241333,1.343325 
	C658.917175,1.000000 713.834412,1.000000 769.000000,1.000000 
	C769.000000,42.687233 769.000000,84.374954 769.000000,126.531334 
z"/>
<path fill="#000000" opacity="1.000000" stroke="none" 
	d="
M612.468628,769.000000 
	C614.214355,766.681152 617.353088,767.372864 619.984436,766.913452 
	C649.915833,761.688354 677.117004,749.968933 701.527039,732.109009 
	C726.816589,713.605652 746.193481,689.869629 760.442993,661.991638 
	C763.378845,656.247986 765.727539,650.204102 768.673462,644.149292 
	C769.000000,685.601929 769.000000,727.203857 769.000000,769.000000 
	C716.979248,769.000000 664.958313,769.000000 612.468628,769.000000 
z"/>
<path fill="#000000" opacity="1.000000" stroke="none" 
	d="
M99.527786,530.500732 
	C84.076759,518.071777 70.594757,504.297821 60.591869,487.470062 
	C49.585419,468.954041 44.276585,448.738739 42.523006,427.318451 
	C40.143776,398.255768 46.584900,371.147400 59.201866,345.227539 
	C67.355209,328.477631 79.923218,315.071075 92.685104,301.904907 
	C115.300438,278.573151 138.501999,255.801620 160.830200,232.201462 
	C193.705597,197.453293 228.571304,164.681824 261.478607,129.977234 
	C285.192535,104.968163 314.618317,90.625443 348.458954,87.234894 
	C403.396820,81.730568 448.842896,100.722282 483.380585,144.326187 
	C499.276947,164.395416 506.622620,187.685547 509.451874,212.891907 
	C512.985779,244.375870 506.290924,273.399933 490.482452,300.579041 
	C489.914795,301.554993 489.133240,302.547424 490.073944,304.395996 
	C494.879608,303.807831 499.915375,303.241608 504.936890,302.568848 
	C540.366638,297.822052 574.628662,301.504547 607.571289,316.067627 
	C640.987122,330.839935 666.519226,354.505280 685.946167,384.998199 
	C697.490295,403.118073 706.076416,422.730164 709.581421,443.983856 
	C718.589966,498.608978 708.449219,548.860107 673.866211,593.191650 
	C645.098877,630.068237 607.558167,653.370972 562.039917,662.494995 
	C528.170288,669.284119 494.826111,664.944031 462.765381,651.271423 
	C413.453461,630.242004 379.735321,594.475525 360.771332,544.601746 
	C352.788544,523.607605 350.365112,501.762054 351.383698,479.370819 
	C351.866394,468.759399 352.807434,458.193054 353.857330,447.660126 
	C351.566132,447.025177 350.813171,448.569885 349.820984,449.552979 
	C327.922485,471.250488 306.179016,493.106628 284.112640,514.631897 
	C263.009857,535.217224 238.486710,549.671387 208.997528,554.617676 
	C169.413864,561.257080 132.821274,554.152283 99.527786,530.500732 
M488.895538,629.575317 
	C513.823364,636.814026 539.073853,638.281067 564.334473,632.171387 
	C605.780640,622.147095 637.987488,598.612488 660.718506,562.725159 
	C681.163696,530.446716 688.621399,495.016479 682.442566,457.168427 
	C677.242554,425.316437 662.408142,398.041901 640.305054,374.867065 
	C603.571350,336.352234 557.966919,323.510406 506.394623,331.821075 
	C468.107971,337.990875 437.272186,358.049652 413.510925,388.469147 
	C385.492004,424.339325 374.367554,465.449493 382.939209,509.962646 
	C394.439209,569.683167 430.689484,609.257812 488.895538,629.575317 
M469.053772,279.592316 
	C478.820557,259.905548 482.677643,239.178589 480.837067,217.222931 
	C479.446686,200.637054 475.178925,184.981155 466.000183,171.160721 
	C438.556427,129.838516 400.116364,110.790855 350.472656,116.281654 
	C326.662903,118.915100 305.226807,128.092560 288.009277,144.944214 
	C257.048248,175.247345 226.665909,206.142059 196.078094,236.825806 
	C191.488297,241.429977 191.565277,242.660095 196.354111,247.449799 
	C246.546173,297.651276 296.747742,347.843292 346.964508,398.020050 
	C351.879669,402.931244 354.293732,402.905273 359.087738,398.109192 
	C388.066162,369.118103 417.010834,340.093201 446.028046,311.140991 
	C455.192596,301.996948 462.755463,291.724823 469.053772,279.592316 
M112.140472,503.349487 
	C132.430298,519.718567 155.695312,528.442017 181.671219,528.622803 
	C211.457123,528.830261 237.399628,518.406067 258.740021,497.412384 
	C279.996765,476.500885 300.980530,455.312164 322.194824,434.357239 
	C334.683014,422.021667 331.961456,424.026947 322.188110,414.220123 
	C273.855896,365.722229 225.421707,317.325928 177.010086,268.907196 
	C172.027832,263.924225 171.682800,263.983978 166.678757,268.989655 
	C146.421021,289.253876 126.269775,309.626312 105.860695,329.737061 
	C76.164711,358.998993 65.820869,394.700714 71.704857,435.142700 
	C75.728714,462.799500 90.342773,484.986847 112.140472,503.349487 
z"/>
<path fill="#000000" opacity="1.000000" stroke="none" 
	d="
M518.649597,454.659363 
	C518.686096,435.213104 518.656738,416.225464 518.799866,397.239136 
	C518.841187,391.756592 519.273743,386.269226 519.719299,380.799744 
	C520.116638,375.922028 523.917480,372.130341 529.081360,371.103760 
	C533.799622,370.165741 538.794861,372.559692 541.276428,377.038330 
	C542.842285,379.864288 543.406982,382.923401 543.364380,386.164490 
	C543.064331,408.974854 544.972107,431.755585 544.309814,454.569641 
	C544.225830,457.463409 545.030273,459.577209 547.395020,461.439087 
	C553.915771,466.573242 557.370483,473.387939 557.297363,481.749512 
	C557.274414,484.371368 558.313721,486.065094 560.215637,487.693146 
	C576.150269,501.333557 592.038513,515.028259 607.911560,528.740356 
	C610.807434,531.242004 613.661743,533.805603 616.375549,536.501404 
	C621.636108,541.726990 621.648926,547.738464 616.562988,553.228271 
	C611.078796,559.147949 605.792358,559.865601 599.998230,554.955811 
	C581.834351,539.564148 563.749268,524.078308 545.741882,508.503906 
	C542.768127,505.931915 540.216736,504.827637 535.989868,505.839508 
	C525.462952,508.359497 515.038025,503.053375 509.964111,493.500610 
	C504.797607,483.773590 506.466156,471.949005 514.383972,464.059326 
	C516.953369,461.499084 519.384766,459.135895 518.649597,454.659363 
z"/>
<path fill="#000000" opacity="1.000000" stroke="none" 
	d="
M526.975464,584.510559 
	C534.894592,582.980835 539.127747,585.827820 540.618408,593.173462 
	C541.766235,598.829590 541.188965,604.460754 540.031189,609.973206 
	C539.218079,613.844543 536.267273,616.228149 532.370422,616.955139 
	C528.815613,617.618286 525.838135,616.146973 523.521423,613.494995 
	C519.738281,609.164307 519.287354,592.311829 522.746826,587.735229 
	C523.771179,586.380066 525.079224,585.388672 526.975464,584.510559 
z"/>
<path fill="#000000" opacity="1.000000" stroke="none" 
	d="
M405.141479,475.616638 
	C410.284027,474.199707 415.139313,474.688812 419.914978,474.991394 
	C425.655823,475.355194 429.394226,479.276398 429.316650,484.063324 
	C429.241272,488.714233 424.843353,493.570038 419.777405,494.041748 
	C416.152679,494.379242 412.437805,494.381989 408.819977,493.998383 
	C404.400848,493.529785 400.742767,491.424438 399.842438,486.665710 
	C398.970825,482.058655 400.091034,478.036926 405.141479,475.616638 
z"/>
</svg>